HIERARCHY
ROOT Hips
{
	OFFSET 0.000000 0.000000 0.000000
	CHANNELS 6 Xposition Yposition Zposition Zrotation Yrotation Xrotation 
	JOINT LHipJoint
	{
		OFFSET 0.000000 0.000000 0.000000
		CHANNELS 3 Zrotation Yrotation Xrotation
		JOINT LeftUpLeg
		{
			OFFSET 1.363060 -1.794630 0.839290
			CHANNELS 3 Zrotation Yrotation Xrotation
			JOINT LeftLeg
			{
				OFFSET 2.448110 -6.726130 0.000000
				CHANNELS 3 Zrotation Yrotation Xrotation
				JOINT LeftFoot
				{
					OFFSET 2.562200 -7.039590 0.000000
					CHANNELS 3 Zrotation Yrotation Xrotation
					JOINT LeftToeBase
					{
						OFFSET 0.157640 -0.433110 2.322550
						CHANNELS 3 Zrotation Yrotation Xrotation
						End Site
						{
							OFFSET 0.000000 0.000000 0.000000
						}
					}
				}
			}
		}
	}
	JOINT RHipJoint
	{
		OFFSET 0.000000 0.000000 0.000000
		CHANNELS 3 Zrotation Yrotation Xrotation
		JOINT RightUpLeg
		{
			OFFSET -1.305520 -1.794630 0.839290
			CHANNELS 3 Zrotation Yrotation Xrotation
			JOINT RightLeg
			{
				OFFSET -2.542530 -6.985550 0.000000
				CHANNELS 3 Zrotation Yrotation Xrotation
				JOINT RightFoot
				{
					OFFSET -2.568260 -7.056230 0.000000
					CHANNELS 3 Zrotation Yrotation Xrotation
					JOINT RightToeBase
					{
						OFFSET -0.164730 -0.452590 2.363150
						CHANNELS 3 Zrotation Yrotation Xrotation
						End Site
						{
							OFFSET 0.000000 0.000000 0.000000
						}
					}
				}
			}
		}
	}
	JOINT LowerBack
	{
		OFFSET 0.000000 0.000000 0.000000
		CHANNELS 3 Zrotation Yrotation Xrotation
		JOINT Spine
		{
			OFFSET 0.028270 2.035590 -0.193380
			CHANNELS 3 Zrotation Yrotation Xrotation
			JOINT Spine1
			{
				OFFSET 0.056720 2.048850 -0.042750
				CHANNELS 3 Zrotation Yrotation Xrotation
				JOINT Neck
				{
					OFFSET 0.000000 0.000000 0.000000
					CHANNELS 3 Zrotation Yrotation Xrotation
					JOINT Neck1
					{
						OFFSET -0.054170 1.746240 0.172020
						CHANNELS 3 Zrotation Yrotation Xrotation
						JOINT Head
						{
							OFFSET 0.104070 1.761360 -0.123970
							CHANNELS 3 Zrotation Yrotation Xrotation
							End Site
							{
								OFFSET 0.000000 0.000000 0.000000
							}
						}
					}
				}
				JOINT LeftShoulder
				{
					OFFSET 0.000000 0.000000 0.000000
					CHANNELS 3 Zrotation Yrotation Xrotation
					JOINT LeftArm
					{
						OFFSET 3.362410 1.200890 -0.311210
						CHANNELS 3 Zrotation Yrotation Xrotation
						JOINT LeftForeArm
						{
							OFFSET 4.983000 -0.000000 -0.000000
							CHANNELS 3 Zrotation Yrotation Xrotation
							JOINT LeftHand
							{
								OFFSET 3.483560 -0.000000 -0.000000
								CHANNELS 3 Zrotation Yrotation Xrotation
								JOINT LeftFingerBase
								{
									OFFSET 0.000000 0.000000 0.000000
									CHANNELS 3 Zrotation Yrotation Xrotation
									JOINT LeftHandIndex1
									{
										OFFSET 0.715260 -0.000000 -0.000000
										CHANNELS 3 Zrotation Yrotation Xrotation
										End Site
										{
											OFFSET 0.000000 0.000000 0.000000
										}
									}
								}
								JOINT LThumb
								{
									OFFSET 0.000000 0.000000 0.000000
									CHANNELS 3 Zrotation Yrotation Xrotation
									End Site
									{
										OFFSET 0.000000 0.000000 0.000000
									}
								}
							}
						}
					}
				}
				JOINT RightShoulder
				{
					OFFSET 0.000000 0.000000 0.000000
					CHANNELS 3 Zrotation Yrotation Xrotation
					JOINT RightArm
					{
						OFFSET -3.136600 1.374050 -0.404650
						CHANNELS 3 Zrotation Yrotation Xrotation
						JOINT RightForeArm
						{
							OFFSET -5.241900 -0.000000 -0.000000
							CHANNELS 3 Zrotation Yrotation Xrotation
							JOINT RightHand
							{
								OFFSET -3.444170 -0.000000 -0.000000
								CHANNELS 3 Zrotation Yrotation Xrotation
								JOINT RightFingerBase
								{
									OFFSET 0.000000 0.000000 0.000000
									CHANNELS 3 Zrotation Yrotation Xrotation
									JOINT RightHandIndex1
									{
										OFFSET -0.622530 -0.000000 -0.000000
										CHANNELS 3 Zrotation Yrotation Xrotation
										End Site
										{
											OFFSET 0.000000 0.000000 0.000000
										}
									}
								}
								JOINT RThumb
								{
									OFFSET 0.000000 0.000000 0.000000
									CHANNELS 3 Zrotation Yrotation Xrotation
									End Site
									{
										OFFSET 0.000000 0.000000 0.000000
									}
								}
							}
						}
					}
				}
			}
		}
	}
}
MOTION
Frames: 4
Frame Time: 0.008333
0.371039 17.698433 0.159089 0.766490 -5.485774 5.981994 1.787926 4.980310 2.404886 -19.900971 -14.907528 -4.515343 -0.610631 3.925432 15.462909 -1.210140 7.555990 -7.870787 0.710400 -5.386700 -15.014700 -3.670586 -5.271489 1.608293 19.421918 19.941326 -4.202670 -0.882099 -4.739828 17.947487 0.433367 -6.199834 -11.086380 -0.651700 5.163800 -14.376300 3.286127 -0.911857 -2.088711 9.640503 -0.979703 -1.760633 -0.243601 -0.383819 -2.821157 -13.516693 -8.283021 -17.118337 3.728263 -9.370341 14.111542 3.498600 -5.377800 11.031100 -8.122968 -10.491969 2.841687 -48.637263 -29.875300 30.833406 125.040239 -49.825922 -90.639243 0.600091 2.791231 -15.177640 -1.261881 38.245336 -1.526300 -7.125000 0.000000 0.000000 -41.810200 60.542900 -17.605800 4.025978 9.618414 3.054075 82.362576 -4.834996 26.793200 -29.255735 29.481390 -4.609619 1.016080 1.078329 16.865923 9.033767 14.369237 1.903900 7.125000 0.000000 0.000000 24.046800 -17.331100 17.404300 
0.378372 17.694767 0.158886 0.909232 -5.537557 5.924114 1.780427 4.980300 2.404343 -20.084439 -14.824108 -4.435187 -0.615055 3.896252 15.398118 -1.205560 7.519634 -7.799298 0.669700 -5.233100 -14.574600 -3.675112 -5.267396 1.607639 19.228523 19.852135 -4.366258 -0.918533 -4.834039 18.200092 0.394844 -5.989040 -11.184581 -0.647200 5.146300 -14.326400 3.349218 -0.959973 -2.101476 9.561134 -1.044257 -1.813593 -0.256392 -0.421402 -2.848854 -13.510639 -8.179399 -17.027975 3.620513 -9.236378 14.182242 3.469800 -5.333000 11.018400 -8.054727 -10.522363 2.778604 -48.209773 -30.563359 30.863022 124.220261 -50.041667 -89.970109 0.575838 2.770828 -15.137334 -1.520768 38.167347 -1.656300 -7.125000 0.000000 0.000000 -41.944400 60.435300 -17.565600 4.034993 9.627461 3.072364 82.391927 -4.858189 26.580439 -29.376926 29.625134 -4.659237 1.007472 1.080289 16.835583 8.999462 14.408768 1.903600 7.125000 0.000000 0.000000 24.024300 -17.294300 17.406300 
0.385807 17.691406 0.159904 1.033079 -5.623563 5.836307 1.777467 4.985751 2.414169 -20.256078 -14.692283 -4.317899 -0.623669 3.853308 15.299857 -1.195729 7.459674 -7.746493 0.633900 -5.094100 -14.177000 -3.675809 -5.264305 1.614049 19.068103 19.847932 -4.472630 -0.959057 -4.939572 18.491376 0.367488 -5.862958 -11.297495 -0.637700 5.109100 -14.220000 3.379853 -1.008930 -2.121231 9.560507 -1.113585 -1.756973 -0.254852 -0.456277 -2.859090 -13.580882 -8.105431 -17.032595 3.565797 -9.116224 14.207168 3.466800 -5.291300 11.013300 -7.981730 -10.541310 2.720112 -48.010704 -31.240225 30.911398 123.150835 -50.324434 -89.077343 0.565858 2.732959 -14.873912 -1.798197 37.929001 -1.789700 -7.125000 0.000000 0.000000 -41.930200 60.214700 -17.334700 4.021525 9.626037 3.082284 82.305103 -4.707622 26.539055 -29.446003 29.712816 -4.688689 0.994200 1.089953 16.757347 8.924692 14.516827 1.904100 7.125000 0.000000 0.000000 23.970800 -17.200100 17.414500 
0.394057 17.688350 0.159904 1.294572 -5.698566 5.751132 1.775267 4.985172 2.413886 -20.588010 -14.588677 -4.224325 -0.624724 3.827877 15.259107 -1.205903 7.497639 -7.681258 0.668100 -5.227200 -14.557800 -3.675494 -5.258640 1.619198 18.743440 19.867592 -4.598524 -0.997836 -5.047869 18.773347 0.342774 -5.759671 -11.416263 -0.635700 5.101200 -14.197500 3.237737 -1.077910 -2.132005 9.563108 -1.204574 -1.746171 -0.166182 -0.499134 -2.870988 -13.676911 -8.017067 -17.076147 3.470022 -8.967795 14.297548 3.454300 -5.245300 11.038900 -7.913466 -10.561590 2.669679 -47.867827 -31.850653 30.995300 122.251836 -50.549926 -88.316037 0.537252 2.722852 -14.688148 -2.182627 37.978320 -1.992400 -7.125000 0.000000 0.000000 -42.301800 60.163400 -17.470300 3.997515 9.616106 3.083480 82.168244 -4.404084 26.579679 -29.389301 29.668220 -4.665679 0.999656 1.088751 16.647660 8.960430 14.491459 1.907100 7.125000 0.000000 0.000000 23.991700 -17.222100 17.420100 
